<svg xmlns="http://www.w3.org/2000/svg" xmlns:xlink="http://www.w3.org/1999/xlink" width="2980" height="447.5" viewBox="0 0 2980 447.5">
  <defs>
    <radialGradient id="radial-gradient" cx="0.092" cy="0.834" r="2.979" gradientTransform="matrix(0.15, -0.016, 0.001, 0.578, 0.077, 0.353)" gradientUnits="objectBoundingBox">
      <stop offset="0" stop-color="#e9168c"/>
      <stop offset="1" stop-color="#f38f39"/>
    </radialGradient>
  </defs>
  <path id="Union_8" data-name="Union 8" d="M2151.039,432.115a65.873,65.873,0,0,0,8.214-3.083,40.592,40.592,0,0,0,7.492-5.962q4-3.907,8.42-15.319a170.842,170.842,0,0,0,7.5-25.807l40.814-195.295,26.933-.013-41.4,200.867a89.5,89.5,0,0,1-10.176,27.345q-7.3,12.747-16.548,20.353a48.992,48.992,0,0,1-15.727,9.252,58.243,58.243,0,0,1-18.6,2.673Zm493.084-166.986-19,92.766-28.15,0,52.639-251.444,26.679-.01L2645.713,256.54h5.133l75.489-70.931L2743,202.927l-69.656,59.838,54.24,87.912L2700.4,363.192Zm-577.109,0-19,92.766-28.151,0L2072.5,106.455l26.679-.01L2068.6,256.54h5.134l75.489-70.931,16.663,17.318-69.656,59.838,54.24,87.912-27.187,12.515Zm-584.776,96.059a41.025,41.025,0,0,1-20.148-9.047l-9.458-8.223-2.672,13.981h-27.55l50.949-251.444,27.942-.014-24.929,120.881,12.965-15.692a84.863,84.863,0,0,1,22.018-19.2,59.188,59.188,0,0,1,30.457-8.465q25.726,0,38.69,18.321,11.729,16.463,11.729,44.665,0,6.585-.616,13.792-4.112,38.9-29.606,69.777-26.112,31.7-56.128,31.7Q1488.405,362.216,1482.238,361.188Zm8.429-128.87A138.256,138.256,0,0,0,1468.257,277q-2.468,8.443-4.523,16.061t-4.523,18.12l-2.672,11.739,5.551,5.971a45.927,45.927,0,0,0,12.747,8.957,46.415,46.415,0,0,0,16.242,4.838q24.259,0,44.2-21.209,18.915-20.177,24.878-49.417a122.349,122.349,0,0,0,2.878-24.71q0-18.738-8.018-29.651t-23.233-10.912Q1509.993,206.785,1490.667,232.318ZM2467.454,342.09q-18.3-20.538-18.3-53.806,0-40.248,28.167-71.875,29.811-33.473,71.547-33.474a86.85,86.85,0,0,1,19.634,1.953,48.024,48.024,0,0,1,15.522,6.682l8.635,5.756-13.775,16.242-7.4-4.112a36.446,36.446,0,0,0-8.84-3.906,50.561,50.561,0,0,0-13.775-1.645q-31.251,0-51.193,26.072-18.709,24.428-18.71,58.3,0,24.016,9.663,37.772,10.485,14.78,30.634,14.78a52.361,52.361,0,0,0,17.064-2.428q4.934-1.623,15.008-7.289l6.579-3.646,10.28,17.475-9.869,5.756q-6.785,3.907-19.84,7.4a102.514,102.514,0,0,1-26.625,3.5Q2484.929,361.6,2467.454,342.09Zm-577.109,0q-18.3-20.538-18.3-53.806,0-40.248,28.166-71.875,29.812-33.473,71.548-33.474a86.85,86.85,0,0,1,19.634,1.953,48.035,48.035,0,0,1,15.522,6.682l8.635,5.756-13.774,16.242-7.4-4.112a36.437,36.437,0,0,0-8.841-3.906,50.549,50.549,0,0,0-13.775-1.645q-31.251,0-51.194,26.072-18.71,24.428-18.709,58.3,0,24.016,9.663,37.772,10.485,14.78,30.633,14.78a52.361,52.361,0,0,0,17.065-2.428q4.934-1.623,15.008-7.289l6.579-3.646,10.28,17.475-9.868,5.756q-6.785,3.907-19.841,7.4a102.505,102.505,0,0,1-26.625,3.5Q1907.822,361.6,1890.346,342.09Zm386.315.8q-12.747-16.859-12.747-46.259,0-40.914,24.672-75.043,27.957-38.652,70.516-38.652,14.388,0,22.2,3.084t14.8,12.13l5.551,7.2,4.112-18.709H2432.7L2398.368,357.9l-27.891.013,6.93-34.553-17.681,18.5q-7.2,7.607-19.327,13.467t-22.824,5.86Q2290.436,361.188,2276.661,342.89Zm32.279-108.144q-16.447,27.756-16.448,61.885,0,18.5,5.963,29.194,6.99,12.542,21.792,12.542,28.373,0,51.605-32.895,22.615-32.073,22.615-68.464,0-34.54-35.362-34.54Q2328.061,202.468,2308.939,234.746ZM1699.553,342.89q-12.747-16.859-12.747-46.259,0-40.914,24.672-75.043,27.957-38.652,70.516-38.652,14.388,0,22.2,3.084t14.8,12.13l5.55,7.2,4.112-18.709h26.933L1821.259,357.9l-27.89.013,6.929-34.553-17.681,18.5q-7.2,7.607-19.326,13.467t-22.824,5.86Q1713.328,361.188,1699.553,342.89Zm32.278-108.144q-16.447,27.756-16.448,61.885,0,18.5,5.963,29.194,6.99,12.542,21.793,12.542,28.373,0,51.605-32.895,22.615-32.073,22.615-68.464,0-34.54-35.363-34.54Q1750.952,202.468,1731.831,234.746ZM1662.1,106.455l27.325-.014-51.187,251.447-27.707.01ZM2806.165,357.14V332.274H2980V357.14ZM0,357.14V332.274H1337.9V357.14ZM222.062,256.477V61.954h32.779V80.268a56.867,56.867,0,0,1,20.622-17.083,58.569,58.569,0,0,1,25.393-5.54q29.24,0,44.783,20.622,13.543,18,13.543,46.476,0,27.239-16.467,47.707-17.235,21.391-42.167,21.391-15.235,0-25.931-5.079a61.01,61.01,0,0,1-19.776-15.543v83.256ZM262.844,92.733q-8,12.928-8,31.7,0,20.467,8.311,33.7,9.85,15.7,28.163,15.7,15.235,0,23.546-15.236,7.078-12.926,7.078-30.778,0-20.776-6.617-33.7-8.311-16.312-26.162-16.312Q272.077,77.806,262.844,92.733Zm986.591,131.1q-.811-.076-1.815-.229V212.319h2.855a43.014,43.014,0,0,0,4.9-.27,13.459,13.459,0,0,0,4.05-1.045,14.931,14.931,0,0,0,5.711-4.407,38.785,38.785,0,0,0,3.7-6.573l6.123-13.137-25.025-58.335,16.619-3.708,16.775,45.96,18.326-45.945,13.719,2.631-34.688,77.645a47.337,47.337,0,0,1-3.168,6.18,32.55,32.55,0,0,1-4.481,5.408,23.463,23.463,0,0,1-10.662,5.718,40.863,40.863,0,0,1-10.894,1.468Q1250.246,223.908,1249.435,223.831Zm-184.918-.077V126.1h16.456v9.194a28.54,28.54,0,0,1,10.353-8.576,29.4,29.4,0,0,1,12.748-2.781q14.678,0,22.482,10.353,6.8,9.04,6.8,23.332a37.086,37.086,0,0,1-8.267,23.951q-8.653,10.738-21.169,10.739a30.164,30.164,0,0,1-13.019-2.55,30.633,30.633,0,0,1-9.927-7.8v41.8Zm20.473-82.2q-4.016,6.489-4.017,15.916,0,10.275,4.172,16.919a15.751,15.751,0,0,0,14.138,7.88q7.649,0,11.821-7.648a31.705,31.705,0,0,0,3.554-15.452q0-10.43-3.322-16.919-4.173-8.19-13.134-8.19A14.689,14.689,0,0,0,1084.99,141.55ZM466.023,180.778Q454.9,168.478,454.9,148.5V61.954h34.01v78.071q0,16.289,7.079,24.279,6.618,7.53,19.083,7.531,11.389,0,20.237-8.683a28.671,28.671,0,0,0,8.849-21.286V61.954h33.7v128.81h-33.7V176.3q-4.17,6.1-17.915,12.359a62.043,62.043,0,0,1-25.789,5.647Q478.221,194.3,466.023,180.778Zm-345.069,9.679a50.731,50.731,0,0,1-19.391-10.927l11.08-18.467q.462,1.539,9.388,6.464,10.927,6.156,20.006,6.156a17.137,17.137,0,0,0,11.389-4.155A13.6,13.6,0,0,0,158.35,158.6q0-7.078-5.847-13.542-3.848-4.155-13.235-10.619l-12.311-8.618q-9.234-6.464-13.543-13.235a33.463,33.463,0,0,1-4.771-18.005q0-15.7,14.62-26.008a52.277,52.277,0,0,1,30.779-9.387,63.665,63.665,0,0,1,17.236,2.769q14,4,18.313,7.079l-9.85,16.928a32.085,32.085,0,0,0-4.482-2q-9.733-3.847-13.134-4.233a49.7,49.7,0,0,0-5.1-.384,18.81,18.81,0,0,0-10.587,3q-4.558,3-4.558,7.618v2q0,5.387,4.617,10a89.8,89.8,0,0,0,10.31,7.848L172.662,121.2a52.623,52.623,0,0,1,14.773,15.389q5.54,8.926,5.54,17.7,0,17.235-14.159,28.931Q165.276,194.3,146.654,194.3A82.782,82.782,0,0,1,120.954,190.456ZM791.932,121.2v69.56H759.153V-.373h32.779V111.97h3.847l46.3-53.555,25.535,11.2-44.464,46.94,51.268,65.395-31.087,11.078Zm542.758,69.405a25.457,25.457,0,0,1-9.734-5.486l5.563-9.271q.232.774,4.712,3.245a20.785,20.785,0,0,0,10.044,3.09,8.6,8.6,0,0,0,5.717-2.085,6.827,6.827,0,0,0,2.472-5.485,10.048,10.048,0,0,0-2.936-6.8,42.205,42.205,0,0,0-6.644-5.332l-6.181-4.326a24.619,24.619,0,0,1-6.8-6.644,16.806,16.806,0,0,1-2.395-9.04q0-7.88,7.339-13.056a26.247,26.247,0,0,1,15.452-4.713,31.945,31.945,0,0,1,8.653,1.391q7.031,2.009,9.193,3.554l-4.945,8.5a16.236,16.236,0,0,0-2.25-1,33.044,33.044,0,0,0-6.593-2.125,24.93,24.93,0,0,0-2.559-.193,9.445,9.445,0,0,0-5.315,1.507,4.458,4.458,0,0,0-2.288,3.824v1a7.012,7.012,0,0,0,2.318,5.022,45.273,45.273,0,0,0,5.177,3.94l7.958,5.717a26.431,26.431,0,0,1,7.417,7.726,16.765,16.765,0,0,1,2.781,8.885q0,8.653-7.108,14.525a24.7,24.7,0,0,1-16.147,5.562A41.558,41.558,0,0,1,1334.689,190.609Zm-148.761-3.824a17.9,17.9,0,0,1-5.6-13.482,19.777,19.777,0,0,1,7.773-15.992q6.157-5.022,17.626-8.113l15.007-4.249a30.007,30.007,0,0,0-2.383-5.486,11.524,11.524,0,0,0-10.068-5.1,24.756,24.756,0,0,0-12.836,3.553,32.834,32.834,0,0,0-4.612,3.554l-5.253-8.344q2.626-2.627,11.125-5.794a38.124,38.124,0,0,1,13.366-2.7q13.365,0,20.242,5.718t6.876,15.992v28.277q0,2.7.039,5.215a22.866,22.866,0,0,0,.811,5.447q.386,1.623.772,2.781t1.082,2.7H1221.97a10.466,10.466,0,0,1-.541-1.082q-.155-.386-.464-1.391a9.657,9.657,0,0,1-.386-2.24q-.078-1.237-.077-2.472v-2.627l-7.417,5.563a55.423,55.423,0,0,1-5.872,4.017,14.081,14.081,0,0,1-6.645,1.623Q1191.529,192.155,1185.928,186.785Zm28.392-31.714q-10.816,3.321-14.524,7.185a11.479,11.479,0,0,0-3.322,8.344,10.764,10.764,0,0,0,2.549,7.185,8.292,8.292,0,0,0,6.645,3.013q6.566,0,10.971-7.107a27.989,27.989,0,0,0,4.094-14.989v-5.639Zm-66.6,35.693V94.809h16.456v95.955Zm-452.284,0v-83.1q0-12.312-7.583-19.084-6.808-6.155-17.486-6.155A30.662,30.662,0,0,0,650.1,89.809a25.9,25.9,0,0,0-9.751,20.776v80.179H606.335V61.954h34.011V79.961q6-8.618,17.852-14.313a59.959,59.959,0,0,1,26.624-6.155q19.082,0,30.471,9.849,14,12.158,14,37.7v83.718Zm-307.634,0V-.373h32.779V190.764ZM909.82,167.387l94.9-45.964-94.9-46.1V52.671l120.605,60.3v16.764L909.82,190.04Zm1323.255-19.4a16.191,16.191,0,0,1-4.317-11.308,24.6,24.6,0,0,1,.411-3.495q1.849-9.046,8.223-14.083a23.184,23.184,0,0,1,14.8-5.037,12.165,12.165,0,0,1,9.149,4.009q3.8,4.009,3.8,10.588a24.809,24.809,0,0,1-.411,3.7,26.354,26.354,0,0,1-7.5,14.7,19.313,19.313,0,0,1-13.878,5.655A13.464,13.464,0,0,1,2233.075,147.984Z" transform="translate(0 0.373)" fill="url(#radial-gradient)"/>
</svg>
